<svg id="visual" viewBox="0 0 960 250" width="960" height="250" xmlns="http://www.w3.org/2000/svg" xmlns:xlink="http://www.w3.org/1999/xlink" version="1.1"><rect x="0" y="0" width="960" height="250" fill="#0d6553"></rect><path d="M0 75L11.5 76.2C23 77.3 46 79.7 68.8 92C91.7 104.3 114.3 126.7 137.2 126.5C160 126.3 183 103.7 205.8 93.7C228.7 83.7 251.3 86.3 274.2 84.7C297 83 320 77 342.8 82.3C365.7 87.7 388.3 104.3 411.2 106C434 107.7 457 94.3 480 89C503 83.7 526 86.3 548.8 88C571.7 89.7 594.3 90.3 617.2 97.8C640 105.3 663 119.7 685.8 122.8C708.7 126 731.3 118 754.2 120.5C777 123 800 136 822.8 132.7C845.7 129.3 868.3 109.7 891.2 102.2C914 94.7 937 99.3 948.5 101.7L960 104L960 251L948.5 251C937 251 914 251 891.2 251C868.3 251 845.7 251 822.8 251C800 251 777 251 754.2 251C731.3 251 708.7 251 685.8 251C663 251 640 251 617.2 251C594.3 251 571.7 251 548.8 251C526 251 503 251 480 251C457 251 434 251 411.2 251C388.3 251 365.7 251 342.8 251C320 251 297 251 274.2 251C251.3 251 228.7 251 205.8 251C183 251 160 251 137.2 251C114.3 251 91.7 251 68.8 251C46 251 23 251 11.5 251L0 251Z" fill="#59d7a1"></path><path d="M0 127L11.5 123C23 119 46 111 68.8 112.5C91.7 114 114.3 125 137.2 131C160 137 183 138 205.8 138.5C228.7 139 251.3 139 274.2 133.7C297 128.3 320 117.7 342.8 111.7C365.7 105.7 388.3 104.3 411.2 105.8C434 107.3 457 111.7 480 119.3C503 127 526 138 548.8 137.5C571.7 137 594.3 125 617.2 121.3C640 117.7 663 122.3 685.8 126.3C708.7 130.3 731.3 133.7 754.2 135.2C777 136.7 800 136.3 822.8 129.8C845.7 123.3 868.3 110.7 891.2 109.3C914 108 937 118 948.5 123L960 128L960 251L948.5 251C937 251 914 251 891.2 251C868.3 251 845.7 251 822.8 251C800 251 777 251 754.2 251C731.3 251 708.7 251 685.8 251C663 251 640 251 617.2 251C594.3 251 571.7 251 548.8 251C526 251 503 251 480 251C457 251 434 251 411.2 251C388.3 251 365.7 251 342.8 251C320 251 297 251 274.2 251C251.3 251 228.7 251 205.8 251C183 251 160 251 137.2 251C114.3 251 91.7 251 68.8 251C46 251 23 251 11.5 251L0 251Z" fill="#3cce90"></path><path d="M0 167L11.5 167.7C23 168.3 46 169.7 68.8 170C91.7 170.3 114.3 169.7 137.2 170.5C160 171.3 183 173.7 205.8 173.8C228.7 174 251.3 172 274.2 168C297 164 320 158 342.8 153C365.7 148 388.3 144 411.2 141.2C434 138.3 457 136.7 480 140.3C503 144 526 153 548.8 156.5C571.7 160 594.3 158 617.2 159C640 160 663 164 685.8 161.8C708.7 159.7 731.3 151.3 754.2 149.5C777 147.7 800 152.3 822.8 150.7C845.7 149 868.3 141 891.2 142.3C914 143.7 937 154.3 948.5 159.7L960 165L960 251L948.5 251C937 251 914 251 891.2 251C868.3 251 845.7 251 822.8 251C800 251 777 251 754.2 251C731.3 251 708.7 251 685.8 251C663 251 640 251 617.2 251C594.3 251 571.7 251 548.8 251C526 251 503 251 480 251C457 251 434 251 411.2 251C388.3 251 365.7 251 342.8 251C320 251 297 251 274.2 251C251.3 251 228.7 251 205.8 251C183 251 160 251 137.2 251C114.3 251 91.7 251 68.8 251C46 251 23 251 11.5 251L0 251Z" fill="#0ac47e"></path><path d="M0 182L11.5 181.7C23 181.3 46 180.7 68.8 179C91.7 177.3 114.3 174.7 137.2 171.3C160 168 183 164 205.8 162C228.7 160 251.3 160 274.2 162.5C297 165 320 170 342.8 177C365.7 184 388.3 193 411.2 193.3C434 193.7 457 185.3 480 179.2C503 173 526 169 548.8 167.3C571.7 165.7 594.3 166.3 617.2 167.2C640 168 663 169 685.8 174.5C708.7 180 731.3 190 754.2 190C777 190 800 180 822.8 175.3C845.7 170.7 868.3 171.3 891.2 173.3C914 175.3 937 178.7 948.5 180.3L960 182L960 251L948.5 251C937 251 914 251 891.2 251C868.3 251 845.7 251 822.8 251C800 251 777 251 754.2 251C731.3 251 708.7 251 685.8 251C663 251 640 251 617.2 251C594.3 251 571.7 251 548.8 251C526 251 503 251 480 251C457 251 434 251 411.2 251C388.3 251 365.7 251 342.8 251C320 251 297 251 274.2 251C251.3 251 228.7 251 205.8 251C183 251 160 251 137.2 251C114.3 251 91.7 251 68.8 251C46 251 23 251 11.5 251L0 251Z" fill="#03a96d"></path><path d="M0 195L11.5 197.5C23 200 46 205 68.8 209.5C91.7 214 114.3 218 137.2 218.3C160 218.7 183 215.3 205.8 211.7C228.7 208 251.3 204 274.2 203.8C297 203.7 320 207.3 342.8 208.5C365.7 209.7 388.3 208.3 411.2 206.7C434 205 457 203 480 204.3C503 205.7 526 210.3 548.8 213.3C571.7 216.3 594.3 217.7 617.2 217.5C640 217.3 663 215.7 685.8 211.8C708.7 208 731.3 202 754.2 199.5C777 197 800 198 822.8 197.8C845.7 197.7 868.3 196.3 891.2 199.8C914 203.3 937 211.7 948.5 215.8L960 220L960 251L948.5 251C937 251 914 251 891.2 251C868.3 251 845.7 251 822.8 251C800 251 777 251 754.2 251C731.3 251 708.7 251 685.8 251C663 251 640 251 617.2 251C594.3 251 571.7 251 548.8 251C526 251 503 251 480 251C457 251 434 251 411.2 251C388.3 251 365.7 251 342.8 251C320 251 297 251 274.2 251C251.3 251 228.7 251 205.8 251C183 251 160 251 137.2 251C114.3 251 91.7 251 68.8 251C46 251 23 251 11.5 251L0 251Z" fill="#018f5d"></path></svg>