<svg id="visual" viewBox="0 0 960 70" width="960" height="70" xmlns="http://www.w3.org/2000/svg" xmlns:xlink="http://www.w3.org/1999/xlink" version="1.1"><rect x="0" y="0" width="960" height="70" fill="#001122"></rect><path d="M0 29L11.5 28.7C23 28.3 46 27.7 68.8 29.7C91.7 31.7 114.3 36.3 137.2 37.3C160 38.3 183 35.7 205.8 33.2C228.7 30.7 251.3 28.3 274.2 29C297 29.7 320 33.3 342.8 35.2C365.7 37 388.3 37 411.2 34.2C434 31.3 457 25.7 480 26.3C503 27 526 34 548.8 35.8C571.7 37.7 594.3 34.3 617.2 34.3C640 34.3 663 37.7 685.8 38.8C708.7 40 731.3 39 754.2 38.8C777 38.7 800 39.3 822.8 36.8C845.7 34.3 868.3 28.7 891.2 27.8C914 27 937 31 948.5 33L960 35L960 71L948.5 71C937 71 914 71 891.2 71C868.3 71 845.7 71 822.8 71C800 71 777 71 754.2 71C731.3 71 708.7 71 685.8 71C663 71 640 71 617.2 71C594.3 71 571.7 71 548.8 71C526 71 503 71 480 71C457 71 434 71 411.2 71C388.3 71 365.7 71 342.8 71C320 71 297 71 274.2 71C251.3 71 228.7 71 205.8 71C183 71 160 71 137.2 71C114.3 71 91.7 71 68.8 71C46 71 23 71 11.5 71L0 71Z" fill="#09c562"></path><path d="M0 36L11.5 35C23 34 46 32 68.8 31.5C91.7 31 114.3 32 137.2 34.2C160 36.3 183 39.7 205.8 42C228.7 44.3 251.3 45.7 274.2 45.7C297 45.7 320 44.3 342.8 41.5C365.7 38.7 388.3 34.3 411.2 33.7C434 33 457 36 480 38.5C503 41 526 43 548.8 43.5C571.7 44 594.3 43 617.2 41.7C640 40.3 663 38.7 685.8 37.5C708.7 36.3 731.3 35.7 754.2 37.2C777 38.7 800 42.3 822.8 43.2C845.7 44 868.3 42 891.2 39.5C914 37 937 34 948.5 32.5L960 31L960 71L948.5 71C937 71 914 71 891.2 71C868.3 71 845.7 71 822.8 71C800 71 777 71 754.2 71C731.3 71 708.7 71 685.8 71C663 71 640 71 617.2 71C594.3 71 571.7 71 548.8 71C526 71 503 71 480 71C457 71 434 71 411.2 71C388.3 71 365.7 71 342.8 71C320 71 297 71 274.2 71C251.3 71 228.7 71 205.8 71C183 71 160 71 137.2 71C114.3 71 91.7 71 68.8 71C46 71 23 71 11.5 71L0 71Z" fill="#00a565"></path><path d="M0 53L11.5 52.7C23 52.3 46 51.7 68.8 49.8C91.7 48 114.3 45 137.2 44.7C160 44.3 183 46.7 205.8 47.3C228.7 48 251.3 47 274.2 47.8C297 48.7 320 51.3 342.8 52C365.7 52.7 388.3 51.3 411.2 50.2C434 49 457 48 480 46.8C503 45.7 526 44.3 548.8 43.5C571.7 42.7 594.3 42.3 617.2 41.8C640 41.3 663 40.7 685.8 41.8C708.7 43 731.3 46 754.2 47.7C777 49.3 800 49.7 822.8 49C845.7 48.3 868.3 46.7 891.2 46.2C914 45.7 937 46.3 948.5 46.7L960 47L960 71L948.5 71C937 71 914 71 891.2 71C868.3 71 845.7 71 822.8 71C800 71 777 71 754.2 71C731.3 71 708.7 71 685.8 71C663 71 640 71 617.2 71C594.3 71 571.7 71 548.8 71C526 71 503 71 480 71C457 71 434 71 411.2 71C388.3 71 365.7 71 342.8 71C320 71 297 71 274.2 71C251.3 71 228.7 71 205.8 71C183 71 160 71 137.2 71C114.3 71 91.7 71 68.8 71C46 71 23 71 11.5 71L0 71Z" fill="#00855f"></path><path d="M0 60L11.5 58.8C23 57.7 46 55.3 68.8 54.8C91.7 54.3 114.3 55.7 137.2 56.8C160 58 183 59 205.8 57.8C228.7 56.7 251.3 53.3 274.2 51.7C297 50 320 50 342.8 50.7C365.7 51.3 388.3 52.7 411.2 53C434 53.3 457 52.7 480 53.5C503 54.3 526 56.7 548.8 57.7C571.7 58.7 594.3 58.3 617.2 57.5C640 56.7 663 55.3 685.8 54.3C708.7 53.3 731.3 52.7 754.2 52.7C777 52.7 800 53.3 822.8 53.7C845.7 54 868.3 54 891.2 54.5C914 55 937 56 948.5 56.5L960 57L960 71L948.5 71C937 71 914 71 891.2 71C868.3 71 845.7 71 822.8 71C800 71 777 71 754.2 71C731.3 71 708.7 71 685.8 71C663 71 640 71 617.2 71C594.3 71 571.7 71 548.8 71C526 71 503 71 480 71C457 71 434 71 411.2 71C388.3 71 365.7 71 342.8 71C320 71 297 71 274.2 71C251.3 71 228.7 71 205.8 71C183 71 160 71 137.2 71C114.3 71 91.7 71 68.8 71C46 71 23 71 11.5 71L0 71Z" fill="#0d6553"></path></svg>