<svg id="visual" viewBox="0 0 960 500" width="960" height="500" xmlns="http://www.w3.org/2000/svg" xmlns:xlink="http://www.w3.org/1999/xlink" version="1.1"><path d="M0 76L14.5 74.3C29 72.7 58 69.3 87.2 71C116.3 72.7 145.7 79.3 174.8 81C204 82.7 233 79.3 262 76C291 72.7 320 69.3 349 70.2C378 71 407 76 436.2 79.3C465.3 82.7 494.7 84.3 523.8 82.7C553 81 582 76 611 73.5C640 71 669 71 698 74.3C727 77.7 756 84.3 785.2 79.3C814.3 74.3 843.7 57.7 872.8 48.5C902 39.3 931 37.7 945.5 36.8L960 36L960 0L945.5 0C931 0 902 0 872.8 0C843.7 0 814.3 0 785.2 0C756 0 727 0 698 0C669 0 640 0 611 0C582 0 553 0 523.8 0C494.7 0 465.3 0 436.2 0C407 0 378 0 349 0C320 0 291 0 262 0C233 0 204 0 174.8 0C145.7 0 116.3 0 87.2 0C58 0 29 0 14.5 0L0 0Z" fill="#0d6553"></path><path d="M0 211L14.5 201C29 191 58 171 87.2 166C116.3 161 145.7 171 174.8 176.8C204 182.7 233 184.3 262 174.3C291 164.3 320 142.7 349 132.7C378 122.7 407 124.3 436.2 130.2C465.3 136 494.7 146 523.8 151.8C553 157.7 582 159.3 611 162.7C640 166 669 171 698 180.2C727 189.3 756 202.7 785.2 199.3C814.3 196 843.7 176 872.8 156C902 136 931 116 945.5 106L960 96L960 34L945.5 34.8C931 35.7 902 37.3 872.8 46.5C843.7 55.7 814.3 72.3 785.2 77.3C756 82.3 727 75.7 698 72.3C669 69 640 69 611 71.5C582 74 553 79 523.8 80.7C494.7 82.3 465.3 80.7 436.2 77.3C407 74 378 69 349 68.2C320 67.3 291 70.7 262 74C233 77.3 204 80.7 174.8 79C145.7 77.3 116.3 70.7 87.2 69C58 67.3 29 70.7 14.5 72.3L0 74Z" fill="#007d5b"></path><path d="M0 286L14.5 295.2C29 304.3 58 322.7 87.2 316C116.3 309.3 145.7 277.7 174.8 276C204 274.3 233 302.7 262 319.3C291 336 320 341 349 330.2C378 319.3 407 292.7 436.2 292.7C465.3 292.7 494.7 319.3 523.8 320.2C553 321 582 296 611 287.7C640 279.3 669 287.7 698 298.5C727 309.3 756 322.7 785.2 312.7C814.3 302.7 843.7 269.3 872.8 262.7C902 256 931 276 945.5 286L960 296L960 94L945.5 104C931 114 902 134 872.8 154C843.7 174 814.3 194 785.2 197.3C756 200.7 727 187.3 698 178.2C669 169 640 164 611 160.7C582 157.3 553 155.7 523.8 149.8C494.7 144 465.3 134 436.2 128.2C407 122.3 378 120.7 349 130.7C320 140.7 291 162.3 262 172.3C233 182.3 204 180.7 174.8 174.8C145.7 169 116.3 159 87.2 164C58 169 29 189 14.5 199L0 209Z" fill="#00955e"></path><path d="M0 466L14.5 460.2C29 454.3 58 442.7 87.2 436.8C116.3 431 145.7 431 174.8 433.5C204 436 233 441 262 441.8C291 442.7 320 439.3 349 436C378 432.7 407 429.3 436.2 435.2C465.3 441 494.7 456 523.8 454.3C553 452.7 582 434.3 611 425.2C640 416 669 416 698 421.8C727 427.7 756 439.3 785.2 439.3C814.3 439.3 843.7 427.7 872.8 421.8C902 416 931 416 945.5 416L960 416L960 294L945.5 284C931 274 902 254 872.8 260.7C843.7 267.3 814.3 300.7 785.2 310.7C756 320.7 727 307.3 698 296.5C669 285.7 640 277.3 611 285.7C582 294 553 319 523.8 318.2C494.7 317.3 465.3 290.7 436.2 290.7C407 290.7 378 317.3 349 328.2C320 339 291 334 262 317.3C233 300.7 204 272.3 174.8 274C145.7 275.7 116.3 307.3 87.2 314C58 320.7 29 302.3 14.5 293.2L0 284Z" fill="#00ad5b"></path><path d="M0 501L14.5 501C29 501 58 501 87.2 501C116.3 501 145.7 501 174.8 501C204 501 233 501 262 501C291 501 320 501 349 501C378 501 407 501 436.2 501C465.3 501 494.7 501 523.8 501C553 501 582 501 611 501C640 501 669 501 698 501C727 501 756 501 785.2 501C814.3 501 843.7 501 872.8 501C902 501 931 501 945.5 501L960 501L960 414L945.5 414C931 414 902 414 872.8 419.8C843.7 425.7 814.3 437.3 785.2 437.3C756 437.3 727 425.7 698 419.8C669 414 640 414 611 423.2C582 432.3 553 450.7 523.8 452.3C494.7 454 465.3 439 436.2 433.2C407 427.3 378 430.7 349 434C320 437.3 291 440.7 262 439.8C233 439 204 434 174.8 431.5C145.7 429 116.3 429 87.2 434.8C58 440.7 29 452.3 14.5 458.2L0 464Z" fill="#1cc553"></path></svg>